<?xml version="1.0" encoding="UTF-8" standalone="no"?> <svg width="24" height="24" viewBox="0 0 24 24" fill="none" xmlns="http://www.w3.org/2000/svg">
<path fill-rule="evenodd" clip-rule="evenodd" d="M12 2C6.47715 2 2 6.47715 2 12C2 14.2173 2.72083 16.2651 3.94221 17.9235C4.92261 16.0046 6.57304 14.4833 8.58609 13.6645C7.59985 12.7521 6.98201 11.449 6.98201 10C6.98201 7.23435 9.23287 5 12 5C14.7671 5 17.018 7.23435 17.018 10C17.018 11.449 16.4001 12.7521 15.4139 13.6645C17.427 14.4833 19.0774 16.0046 20.0578 17.9235C21.2792 16.2651 22 14.2173 22 12C22 6.47715 17.5228 2 12 2ZM18.5844 19.5265C17.5805 16.8826 15.0118 15 12 15C8.98818 15 6.41953 16.8826 5.41557 19.5265C7.17529 21.0674 9.47791 22 12 22C14.5221 22 16.8247 21.0674 18.5844 19.5265ZM0 12C0 5.37258 5.37258 0 12 0C18.6274 0 24 5.37258 24 12C24 15.3377 22.6361 18.3586 20.4376 20.5327C18.271 22.6753 15.2892 24 12 24C8.71079 24 5.72901 22.6753 3.56237 20.5327C1.36394 18.3586 0 15.3377 0 12ZM12 7C10.329 7 8.98201 8.34737 8.98201 10C8.98201 11.6526 10.329 13 12 13C13.671 13 15.018 11.6526 15.018 10C15.018 8.34737 13.671 7 12 7Z" fill="#293644"/>
</svg>
