<svg xmlns="http://www.w3.org/2000/svg" width="24.097" height="22.001" viewBox="0 0 24.097 22.001">
  <g id="_1294338" data-name="1294338" transform="translate(0.1 1248)">
    <path id="Caminho_2" data-name="Caminho 2" d="M35.122-1247.734a1.852,1.852,0,0,0-.125.287c.005.012.645.384,1.424.83s1.44.823,1.468.843l.051.035-.012.222a3.939,3.939,0,0,1-.374,1.541,3.437,3.437,0,0,1-1.278,1.378.832.832,0,0,1-.19.1c-.018,0-.686-.374-1.482-.828s-1.456-.829-1.465-.829a.423.423,0,0,0-.078.124l-.062.123.051.15a6.152,6.152,0,0,0,.931,1.719,4.287,4.287,0,0,0,2.323,1.454,6.464,6.464,0,0,0,1.393.183,1.114,1.114,0,0,1,.467.062,9.606,9.606,0,0,1,2.255,1.763c.1.1.471.453.818.792l.633.617,1.112-1.112,1.111-1.112-.659-.675a32.741,32.741,0,0,1-2.263-2.464,3.926,3.926,0,0,1-.693-1.07,1.746,1.746,0,0,1-.046-.49,5.417,5.417,0,0,0-.233-1.6c-.442-1.375-1.627-2.071-3.811-2.24-.6-.048-.857-.063-.994-.063h-.137Z" transform="translate(-32.517)"/>
    <path id="Caminho_3" data-name="Caminho 3" d="M20.327-1205.031c-.817.534-1.49.984-1.5,1s-.07.24-.138.5-.134.5-.144.538c-.017.062-.543.557-4.4,4.155-2.409,2.247-4.4,4.086-4.41,4.086s-.289-.152-.605-.335-.584-.335-.6-.335a3.337,3.337,0,0,0-.308.27c-.261.243-.287.275-.287.33a2.319,2.319,0,0,1-.125.6,2.227,2.227,0,0,1-.333.594,3.865,3.865,0,0,1-2.4,1.278l-.183.021L2.4-1190l-2.5,2.327.008.07A3.133,3.133,0,0,0,1-1185.656a3.473,3.473,0,0,0,1.98.91l.076.007,2.5-2.327,2.5-2.328.023-.171a3.48,3.48,0,0,1,1.394-2.256,2.466,2.466,0,0,1,.62-.3,2.784,2.784,0,0,1,.639-.115c.061,0,.093-.025.357-.271s.291-.277.272-.314-.174-.27-.363-.552-.342-.522-.342-.538,1.973-1.865,4.384-4.111c3.86-3.6,4.392-4.086,4.458-4.1l.6-.141c.289-.067.533-.129.541-.138s2.029-2.7,2.063-2.752.009-.055-.409-.444c-.238-.224-.443-.405-.454-.405S21.145-1205.563,20.327-1205.031Z" transform="translate(0 -41.26)"/>
    <path id="Caminho_4" data-name="Caminho 4" d="M634.61-660.89l-1.11,1.11.494.5a20.579,20.579,0,0,1,3.323,3.788,1.247,1.247,0,0,1,.13.694,4.866,4.866,0,0,0,.383,1.981,2.905,2.905,0,0,0,1.622,1.444,8.884,8.884,0,0,0,2.968.462h.213l.13-.264c.115-.231.129-.268.106-.289s-.657-.383-1.428-.821-1.424-.814-1.452-.834l-.051-.035.012-.222a3.428,3.428,0,0,1,1.643-2.914.891.891,0,0,1,.2-.1c.019,0,.688.374,1.484.828s1.456.828,1.465.828a.424.424,0,0,0,.078-.123l.062-.123-.051-.15a6.129,6.129,0,0,0-.931-1.719,4.267,4.267,0,0,0-2.323-1.454,6.436,6.436,0,0,0-1.393-.183,1.189,1.189,0,0,1-.488-.067,6.985,6.985,0,0,1-1.708-1.267c-.384-.349-.619-.575-1.474-1.412-.427-.42-.781-.763-.784-.763S635.22-661.5,634.61-660.89Z" transform="translate(-620.882 -575.67)"/>
  </g>
</svg>
